HIERARCHY
ROOT Hips
{
	OFFSET 0.000000 0.000000 0.000000
	CHANNELS 6 Xposition Yposition Zposition Zrotation Yrotation Xrotation
	JOINT LHipJoint
	{
		OFFSET 0.000000 0.000000 0.000000
		CHANNELS 3 Zrotation Yrotation Xrotation
		JOINT LeftUpLeg
		{
			OFFSET 1.363060 -1.794630 0.839290
			CHANNELS 3 Zrotation Yrotation Xrotation
			JOINT LeftLeg
			{
				OFFSET 2.448110 -6.726130 0.000000
				CHANNELS 3 Zrotation Yrotation Xrotation
				JOINT LeftFoot
				{
					OFFSET 2.562200 -7.039590 0.000000
					CHANNELS 3 Zrotation Yrotation Xrotation
					JOINT LeftToeBase
					{
						OFFSET 0.157640 -0.433110 2.322550
						CHANNELS 3 Zrotation Yrotation Xrotation
						End Site
						{
							OFFSET 0.000000 0.000000 0.000000
						}
					}
				}
			}
		}
	}
	JOINT RHipJoint
	{
		OFFSET 0.000000 0.000000 0.000000
		CHANNELS 3 Zrotation Yrotation Xrotation
		JOINT RightUpLeg
		{
			OFFSET -1.305520 -1.794630 0.839290
			CHANNELS 3 Zrotation Yrotation Xrotation
			JOINT RightLeg
			{
				OFFSET -2.542530 -6.985550 0.000000
				CHANNELS 3 Zrotation Yrotation Xrotation
				JOINT RightFoot
				{
					OFFSET -2.568260 -7.056230 0.000000
					CHANNELS 3 Zrotation Yrotation Xrotation
					JOINT RightToeBase
					{
						OFFSET -0.164730 -0.452590 2.363150
						CHANNELS 3 Zrotation Yrotation Xrotation
						End Site
						{
							OFFSET 0.000000 0.000000 0.000000
						}
					}
				}
			}
		}
	}
	JOINT LowerBack
	{
		OFFSET 0.000000 0.000000 0.000000
		CHANNELS 3 Zrotation Yrotation Xrotation
		JOINT Spine
		{
			OFFSET 0.028270 2.035590 -0.193380
			CHANNELS 3 Zrotation Yrotation Xrotation
			JOINT Spine1
			{
				OFFSET 0.056720 2.048850 -0.042750
				CHANNELS 3 Zrotation Yrotation Xrotation
				JOINT Neck
				{
					OFFSET 0.000000 0.000000 0.000000
					CHANNELS 3 Zrotation Yrotation Xrotation
					JOINT Neck1
					{
						OFFSET -0.054170 1.746240 0.172020
						CHANNELS 3 Zrotation Yrotation Xrotation
						JOINT Head
						{
							OFFSET 0.104070 1.761360 -0.123970
							CHANNELS 3 Zrotation Yrotation Xrotation
							End Site
							{
								OFFSET 0.000000 0.000000 0.000000
							}
						}
					}
				}
				JOINT LeftShoulder
				{
					OFFSET 0.000000 0.000000 0.000000
					CHANNELS 3 Zrotation Yrotation Xrotation
					JOINT LeftArm
					{
						OFFSET 3.362410 1.200890 -0.311210
						CHANNELS 3 Zrotation Yrotation Xrotation
						JOINT LeftForeArm
						{
							OFFSET 4.983000 -0.000000 -0.000000
							CHANNELS 3 Zrotation Yrotation Xrotation
							JOINT LeftHand
							{
								OFFSET 3.483560 -0.000000 -0.000000
								CHANNELS 3 Zrotation Yrotation Xrotation
								JOINT LeftFingerBase
								{
									OFFSET 0.000000 0.000000 0.000000
									CHANNELS 3 Zrotation Yrotation Xrotation
									JOINT LeftHandIndex1
									{
										OFFSET 0.715260 -0.000000 -0.000000
										CHANNELS 3 Zrotation Yrotation Xrotation
										End Site
										{
											OFFSET 0.000000 0.000000 0.000000
										}
									}
								}
								JOINT LThumb
								{
									OFFSET 0.000000 0.000000 0.000000
									CHANNELS 3 Zrotation Yrotation Xrotation
									End Site
									{
										OFFSET 0.000000 0.000000 0.000000
									}
								}
							}
						}
					}
				}
				JOINT RightShoulder
				{
					OFFSET 0.000000 0.000000 0.000000
					CHANNELS 3 Zrotation Yrotation Xrotation
					JOINT RightArm
					{
						OFFSET -3.136600 1.374050 -0.404650
						CHANNELS 3 Zrotation Yrotation Xrotation
						JOINT RightForeArm
						{
							OFFSET -5.241900 -0.000000 -0.000000
							CHANNELS 3 Zrotation Yrotation Xrotation
							JOINT RightHand
							{
								OFFSET -3.444170 -0.000000 -0.000000
								CHANNELS 3 Zrotation Yrotation Xrotation
								JOINT RightFingerBase
								{
									OFFSET 0.000000 0.000000 0.000000
									CHANNELS 3 Zrotation Yrotation Xrotation
									JOINT RightHandIndex1
									{
										OFFSET -0.622530 -0.000000 -0.000000
										CHANNELS 3 Zrotation Yrotation Xrotation
										End Site
										{
											OFFSET 0.000000 0.000000 0.000000
										}
									}
								}
								JOINT RThumb
								{
									OFFSET 0.000000 0.000000 0.000000
									CHANNELS 3 Zrotation Yrotation Xrotation
									End Site
									{
										OFFSET 0.000000 0.000000 0.000000
									}
								}
							}
						}
					}
				}
			}
		}
	}
}
MOTION
Frames: 6
Frame Time: 0.008333
0.005416 0.001286 0.083408 -0.100950 -0.002288 0.001243 -0.081931 -0.037118 0.033672 0.232674 -0.523500 0.002758 -0.524921 -0.306845 -1.523678 -0.018730 0.198222 0.120087 0.049393 0.449874 1.245377 0.050940 -0.013385 -0.060937 0.049800 -0.372352 0.591347 0.074293 0.243197 -0.530979 0.001931 0.001058 0.030889 -0.006715 0.067594 -0.186841 0.192041 -0.026164 0.058875 -0.001377 -0.003377 -0.041391 -0.061996 -0.009146 -0.080850 -0.067650 0.019270 0.046711 0.007882 0.029519 0.046205 0.018138 0.011799 0.016130 -0.010474 0.004641 -0.005899 -0.060517 0.028750 0.016687 -0.007735 0.010907 0.002885 0.010610 0.000733 -0.113270 0.135713 -0.020150 0.036151 0.000000 0.000000 0.000000 0.116423 -0.004079 0.008410 0.047378 -0.002957 0.004899 -0.226496 0.043172 0.480364 -0.567071 0.502761 -0.195456 0.005662 -0.033281 -0.429791 0.106686 -0.117610 0.055418 -0.000000 0.000000 0.000000 0.066590 -0.103180 0.034079
0.004693 -0.066541 -0.347111 -0.111772 -0.149302 -0.342890 -0.335843 -0.148508 -0.028548 -0.132600 -0.807785 -0.141563 -1.075222 -0.488035 -1.875867 -0.125710 0.327816 0.179625 0.056097 0.487327 1.171680 -0.033900 -0.071247 -0.152011 -0.082482 -0.455481 0.370251 0.028437 0.168272 -0.612432 -0.044040 -0.291280 0.466501 -0.010720 0.040069 -0.316697 0.248215 -0.003786 0.093152 0.014518 0.020826 -0.039590 -0.057266 -0.005877 -0.018961 -0.052356 0.031760 0.050429 0.035935 0.027749 0.113918 0.005064 0.054274 0.109063 0.047270 0.050911 0.002503 -0.109738 0.189639 0.108833 0.070480 -0.026575 -0.000102 0.014436 -0.032363 -0.591427 -0.055465 -0.777013 0.015567 -0.009927 0.000000 0.000000 0.457340 0.519279 0.429942 -0.181697 0.026678 0.009795 0.146124 -0.032541 -0.167062 -0.595726 0.802840 -0.717337 -0.012285 0.002537 -0.214775 2.695549 0.636325 1.751460 0.079343 0.000000 0.000000 3.569024 1.752983 2.887371
-0.009596 -0.085640 -0.605378 -0.057457 -0.168601 -0.491332 -0.382913 -0.195397 -0.024314 -0.297627 -0.972751 0.831029 -1.557576 -0.506585 -1.686598 -0.195278 0.860761 0.277670 0.071557 0.442044 1.232669 0.059759 -0.066654 -0.165162 0.002941 -0.378300 0.385747 0.033978 0.162227 -0.480216 -0.043024 -0.530118 1.086280 0.005252 0.056638 -0.489111 0.309671 0.011575 0.098212 0.027291 0.039519 -0.040511 -0.053992 -0.012713 0.021834 -0.073594 0.013604 0.046893 0.049838 0.017706 0.170894 -0.041630 0.076797 0.143080 0.032386 0.051741 -0.002318 -0.406794 0.264509 -0.057845 0.099193 -0.111784 -0.019727 0.028191 -0.054417 -0.768971 -0.078956 -1.560239 -0.055519 -0.033085 0.000000 0.000000 0.515695 0.711022 0.654018 -0.503293 0.031838 0.013051 0.417383 -0.073123 -0.969026 -0.517869 1.262492 -1.302193 -0.042390 0.045697 0.013417 5.800822 1.552624 3.791142 0.170650 0.000000 0.000000 6.612417 3.380020 4.765494
-0.044996 -0.126479 -0.924462 -0.005847 -0.201962 -0.649941 -0.412751 -0.242863 -0.012273 -0.434857 -1.144851 1.798872 -2.046675 -0.571561 -1.615866 -0.286605 1.273561 0.243389 0.062666 0.323829 1.069197 0.074275 -0.092449 -0.228030 -0.047295 -0.399530 0.218188 0.008225 0.104781 -0.516695 -0.083772 -0.976970 1.419589 -0.008168 0.002424 -0.857420 0.320405 -0.002306 0.012055 0.014936 0.024595 -0.092909 -0.081747 -0.035527 -0.001529 -0.158088 -0.050604 -0.031626 0.031723 -0.039765 0.161119 -0.132168 0.073721 0.118129 -0.048833 0.004293 -0.019103 -0.939008 0.265220 -0.424387 0.074818 -0.280095 -0.060355 0.036379 -0.089941 -1.172423 -0.241120 -2.585815 -0.236808 -0.079510 0.000000 0.000000 -0.007676 0.320537 0.408794 -0.895125 -0.004338 -0.009397 0.261035 -0.279985 -2.040157 -0.693720 1.523098 -2.055581 -0.089205 0.067303 0.010046 7.208621 1.741220 4.460021 0.227085 0.000000 0.000000 8.066107 4.124868 4.990505
-0.019513 -0.109538 -0.948284 0.122384 -0.082023 -0.711847 -0.320992 -0.186213 0.132646 -0.231580 -1.072268 2.972728 -2.476154 -0.465047 -1.084168 -0.322330 2.057380 0.693613 0.126669 0.367564 1.526126 0.392658 -0.013980 -0.088460 0.559517 -0.103050 0.565914 0.087808 0.259150 0.132476 0.035538 -0.549513 2.576084 0.082345 0.219795 -0.683871 0.395487 0.023977 0.053030 0.045705 0.070956 -0.033218 -0.038665 -0.035960 -0.009850 -0.217476 -0.096405 -0.023486 0.077351 0.010364 0.307171 -0.156099 0.078708 0.125576 -0.093473 0.000339 -0.021039 -1.132208 0.385722 -0.900160 -0.027290 -0.492836 -0.112293 0.051151 -0.080399 -1.046540 -0.091625 -2.359961 0.094820 -0.055536 0.000000 0.000000 0.757659 1.967718 2.103539 -0.786521 0.244365 0.025979 0.954671 -0.113955 -2.449507 -0.130619 2.553818 -2.521784 -0.078299 0.152401 0.538244 12.231499 3.398405 7.670491 0.353967 0.000000 0.000000 13.158810 6.936704 9.267817
0.076862 -0.022988 -0.765808 0.283156 0.059010 -0.582053 -0.047251 -0.071057 0.305408 0.016767 -0.961897 4.059489 -2.828915 -0.289332 -0.429500 -0.310844 3.063264 1.417003 0.233952 0.624110 2.912319 0.994079 0.170365 0.177007 1.849897 0.426986 1.291249 0.231562 0.500612 0.993053 0.205912 0.139545 3.632170 0.206246 0.531739 0.059371 0.629948 0.130470 0.341259 0.149445 0.205765 0.186281 0.105852 0.034807 0.269570 -0.027393 0.036042 0.232185 0.217738 0.231834 0.705352 0.011581 0.170105 0.335413 0.089768 0.164867 0.013125 -0.417639 0.830951 0.033786 0.288365 -0.171019 -0.032618 0.095657 -0.004290 -0.032273 0.551886 -1.742145 0.571120 0.000113 0.000000 0.000000 1.662828 4.164746 4.373578 -0.650738 0.589824 0.081867 1.912025 0.140511 -2.928276 0.437667 3.642709 -3.149065 -0.061770 0.249599 1.174835 18.236729 5.174948 11.090767 0.487069 0.000000 0.000000 18.333660 9.817684 14.540214
